<svg width="20" height="20" viewBox="0 0 20 20" fill="none" xmlns="http://www.w3.org/2000/svg">
<mask id="mask0" mask-type="alpha" maskUnits="userSpaceOnUse" x="1" y="1" width="18" height="18">
<path d="M9.0747 1.66667H9.4497V1.25188L9.03701 1.29357L9.0747 1.66667ZM9.0747 7.63333L9.21819 7.9798L9.4497 7.88391V7.63333H9.0747ZM9.0747 18.3333L9.03701 18.7064L9.4497 18.7481V18.3333H9.0747ZM9.0747 12.3667H9.4497V12.1161L9.21819 12.0202L9.0747 12.3667ZM18.1494 9.16667V9.54167H18.5638L18.5225 9.12934L18.1494 9.16667ZM12.2591 9.16667L11.9099 9.30334L12.0032 9.54167H12.2591V9.16667ZM10.7246 1.66667L10.7601 1.29335L10.3496 1.25437V1.66667H10.7246ZM10.7246 7.63333H10.3496V7.91153L10.6159 7.99222L10.7246 7.63333ZM10.7246 12.3667L10.6159 12.0078L10.3496 12.0885V12.3667H10.7246ZM10.7246 18.3333H10.3496V18.7456L10.7601 18.7067L10.7246 18.3333ZM12.2591 10.8333V10.4583H12.0032L11.9099 10.6967L12.2591 10.8333ZM18.1494 10.8333L18.5225 10.8707L18.5638 10.4583H18.1494V10.8333ZM8.6997 1.66667V7.63333H9.4497V1.66667H8.6997ZM2.02495 10C2.02495 5.84955 5.18035 2.43696 9.11239 2.03977L9.03701 1.29357C4.71933 1.72971 1.27495 5.46711 1.27495 10H2.02495ZM9.11239 17.9602C5.18035 17.563 2.02495 14.1504 2.02495 10H1.27495C1.27495 14.5329 4.71933 18.2703 9.03701 18.7064L9.11239 17.9602ZM8.6997 12.3667V18.3333H9.4497V12.3667H8.6997ZM7.04975 10C7.04975 11.2837 7.99827 12.3267 8.93121 12.7131L9.21819 12.0202C8.50118 11.7233 7.79975 10.9163 7.79975 10H7.04975ZM8.93121 7.28687C7.99827 7.67325 7.04975 8.71628 7.04975 10H7.79975C7.79975 9.08372 8.50118 8.27675 9.21819 7.9798L8.93121 7.28687ZM18.1494 8.79167H12.2591V9.54167H18.1494V8.79167ZM10.6892 2.03999C14.6243 2.41364 17.3969 5.41234 17.7763 9.204L18.5225 9.12934C18.1099 5.00433 15.0747 1.70303 10.7601 1.29335L10.6892 2.03999ZM11.0996 7.63333V1.66667H10.3496V7.63333H11.0996ZM12.6083 9.02999C12.3018 8.24692 11.8042 7.56864 10.8334 7.27445L10.6159 7.99222C11.295 8.19802 11.6554 8.65308 11.9099 9.30334L12.6083 9.02999ZM10.3496 12.3667V18.3333H11.0996V12.3667H10.3496ZM11.9099 10.6967C11.6554 11.3469 11.295 11.802 10.6159 12.0078L10.8334 12.7256C11.8042 12.4314 12.3018 11.7531 12.6083 10.97L11.9099 10.6967ZM18.1494 10.4583H12.2591V11.2083H18.1494V10.4583ZM10.7601 18.7067C15.0747 18.297 18.1099 14.9957 18.5225 10.8707L17.7763 10.796C17.3969 14.5877 14.6243 17.5864 10.6892 17.96L10.7601 18.7067Z" fill="white"/>
</mask>
<g mask="url(#mask0)">
<rect width="19.7993" height="20" fill="#4D4D4D"/>
</g>
</svg>
